<?xml version="1.0" encoding="UTF-8" standalone="no"?><!-- Generator: Gravit.io --><svg xmlns="http://www.w3.org/2000/svg" xmlns:xlink="http://www.w3.org/1999/xlink" style="isolation:isolate" viewBox="0 0 32 32" width="32pt" height="32pt"><defs><clipPath id="_clipPath_Qbft2a7qaFDMHNfMePqI0EZLQ6yW9e8O"><rect width="32" height="32"/></clipPath></defs><g clip-path="url(#_clipPath_Qbft2a7qaFDMHNfMePqI0EZLQ6yW9e8O)"><rect x="2.144" y="5.728" width="27.456" height="24.928" transform="matrix(1,0,0,1,0,0)" fill="rgb(162,75,40)"/><defs><linearGradient id="_lgradient_4" x1="0.5" y1="0" x2="0.5000000000000001" y2="1"><stop offset="0%" style="stop-color:#ECA56D"/><stop offset="100%" style="stop-color:#FAC3A0"/></linearGradient></defs><path d="M 5.008 32 L 26.412 32 C 29.336 32 31.71 30.336 31.71 28.287 L 31.71 28.287 C 31.71 27.566 30.874 26.98 29.845 26.98 L 1.575 26.98 C 0.546 26.98 -0.29 27.566 -0.29 28.287 L -0.29 28.287 C -0.29 30.336 2.084 32 5.008 32 Z" style="stroke:none;fill:url(#_lgradient_4);stroke-miterlimit:10;"/><rect x="-1.432" y="20.544" width="33" height="4.16" transform="matrix(1,0,0,1,0,0)" fill="rgb(162,75,40)"/><path d=" M 0 26.353 Q 22.642 24.636 32 26.673" fill="none" vector-effect="non-scaling-stroke" stroke-width="3.5" stroke="rgb(241,247,136)" stroke-linejoin="miter" stroke-linecap="square" stroke-miterlimit="3"/><path d=" M -0.932 20.295 Q 30.172 20.837 30.928 20.199 L 30.928 19.111 Q 15.968 17.926 -0.932 18.695 L -0.932 20.295 Z " fill="rgb(255,80,80)"/><rect x="0.544" y="16.896" width="11.776" height="1.496" transform="matrix(1,0,0,1,0,0)" fill="rgb(39,157,49)"/><rect x="16" y="16.896" width="11.776" height="1.496" transform="matrix(1,0,0,1,0,0)" fill="rgb(39,157,49)"/><rect x="0.544" y="15.232" width="7.488" height="1.664" transform="matrix(1,0,0,1,0,0)" fill="rgb(243,106,255)"/><rect x="12.752" y="15.328" width="7.488" height="1.664" transform="matrix(0.977,-0.214,0.214,0.977,-3.079,3.908)" fill="rgb(243,106,255)"/><rect x="23.872" y="15.081" width="8.032" height="1.967" transform="matrix(0.897,0.441,-0.441,0.897,9.954,-10.66)" fill="rgb(243,106,255)"/><path d=" M 0.928 13.425 L 4.192 14.001 L 13.6 13.425 L 22.688 14.545 L 30.176 13.425 L 31.072 14.001" fill="none" vector-effect="non-scaling-stroke" stroke-width="5.2" stroke="rgb(99,197,54)" stroke-linejoin="miter" stroke-linecap="square" stroke-miterlimit="3"/><defs><linearGradient id="_lgradient_5" x1="0.5" y1="0" x2="0.5000000000000001" y2="1"><stop offset="0%" style="stop-color:#ECA56D"/><stop offset="100%" style="stop-color:#FAC3A0"/></linearGradient></defs><path d="M 7.57 0 L 23.57 0 C 27.985 0 31.57 3.586 31.57 8.003 L 31.57 8.643 C 31.57 10.198 30.308 11.46 28.754 11.46 L 2.386 11.46 C 0.832 11.46 -0.43 10.198 -0.43 8.643 L -0.43 8.003 C -0.43 3.586 3.155 0 7.57 0 Z" style="stroke:none;fill:url(#_lgradient_5);stroke-miterlimit:10;"/></g></svg>