{
    "asset" : {
        "generator" : "Khronos glTF Blender I/O v1.7.33",
        "version" : "2.0"
    },
    "scene" : 0,
    "scenes" : [
        {
            "name" : "Scene",
            "nodes" : [
                0
            ]
        }
    ],
    "nodes" : [
        {
            "mesh" : 0,
            "name" : "Plane"
        }
    ],
    "materials" : [
        {
            "doubleSided" : true,
            "name" : "Material.001",
            "pbrMetallicRoughness" : {
                "baseColorFactor" : [
                    0.8000000715255737,
                    0.3665097653865814,
                    0,
                    1
                ],
                "metallicFactor" : 0,
                "roughnessFactor" : 0.3529411554336548
            }
        }
    ],
    "meshes" : [
        {
            "name" : "Plane",
            "primitives" : [
                {
                    "attributes" : {
                        "POSITION" : 0,
                        "NORMAL" : 1,
                        "TEXCOORD_0" : 2
                    },
                    "indices" : 3,
                    "material" : 0
                }
            ]
        }
    ],
    "accessors" : [
        {
            "bufferView" : 0,
            "componentType" : 5126,
            "count" : 1936,
            "max" : [
                0.969980776309967,
                0.1041487455368042,
                0.8995766043663025
            ],
            "min" : [
                -0.9999202489852905,
                -0.06375492364168167,
                -0.9072437286376953
            ],
            "type" : "VEC3"
        },
        {
            "bufferView" : 1,
            "componentType" : 5126,
            "count" : 1936,
            "type" : "VEC3"
        },
        {
            "bufferView" : 2,
            "componentType" : 5126,
            "count" : 1936,
            "type" : "VEC2"
        },
        {
            "bufferView" : 3,
            "componentType" : 5123,
            "count" : 2904,
            "type" : "SCALAR"
        }
    ],
    "bufferViews" : [
        {
            "buffer" : 0,
            "byteLength" : 23232,
            "byteOffset" : 0
        },
        {
            "buffer" : 0,
            "byteLength" : 23232,
            "byteOffset" : 23232
        },
        {
            "buffer" : 0,
            "byteLength" : 15488,
            "byteOffset" : 46464
        },
        {
            "buffer" : 0,
            "byteLength" : 5808,
            "byteOffset" : 61952
        }
    ],
    "buffers" : [
        {
            "byteLength" : 67760,
            "uri" : "data:application/octet-stream;base64,"
        }
    ]
}
