{
    "asset" : {
        "generator" : "Khronos glTF Blender I/O v1.7.33",
        "version" : "2.0"
    },
    "scene" : 0,
    "scenes" : [
        {
            "name" : "Scene",
            "nodes" : [
                0,
                1,
                2,
                3
            ]
        }
    ],
    "nodes" : [
        {
            "mesh" : 0,
            "name" : "Circle"
        },
        {
            "mesh" : 1,
            "name" : "Circle.001",
            "rotation" : [
                0,
                -0.9666438698768616,
                0,
                -0.2561241686344147
            ],
            "scale" : [
                0.7762704491615295,
                0.7762704491615295,
                0.7762704491615295
            ],
            "translation" : [
                0.36194291710853577,
                0.022739849984645844,
                0.0339861735701561
            ]
        },
        {
            "mesh" : 2,
            "name" : "Circle.002",
            "rotation" : [
                0,
                -0.28653961420059204,
                0,
                0.9580683708190918
            ],
            "scale" : [
                0.8107342720031738,
                0.8107342720031738,
                0.8107342720031738
            ],
            "translation" : [
                0.12409117817878723,
                0.030319759622216225,
                -0.2115997076034546
            ]
        },
        {
            "mesh" : 3,
            "name" : "Circle.003",
            "rotation" : [
                0,
                -0.9666438698768616,
                0,
                -0.2561241686344147
            ],
            "scale" : [
                0.9534371495246887,
                0.9534369111061096,
                0.9534371495246887
            ],
            "translation" : [
                0.6404886841773987,
                -0.02099541947245598,
                0.06436185538768768
            ]
        }
    ],
    "materials" : [
        {
            "doubleSided" : true,
            "name" : "Material.001",
            "pbrMetallicRoughness" : {
                "baseColorFactor" : [
                    0.19598791003227234,
                    0.1207529678940773,
                    0.07306107878684998,
                    1
                ],
                "metallicFactor" : 0,
                "roughnessFactor" : 0.28431370854377747
            }
        }
    ],
    "meshes" : [
        {
            "name" : "Circle",
            "primitives" : [
                {
                    "attributes" : {
                        "POSITION" : 0,
                        "NORMAL" : 1,
                        "TEXCOORD_0" : 2
                    },
                    "indices" : 3,
                    "material" : 0
                }
            ]
        },
        {
            "name" : "Circle.001",
            "primitives" : [
                {
                    "attributes" : {
                        "POSITION" : 4,
                        "NORMAL" : 5,
                        "TEXCOORD_0" : 6
                    },
                    "indices" : 3,
                    "material" : 0
                }
            ]
        },
        {
            "name" : "Circle.002",
            "primitives" : [
                {
                    "attributes" : {
                        "POSITION" : 7,
                        "NORMAL" : 8,
                        "TEXCOORD_0" : 9
                    },
                    "indices" : 3,
                    "material" : 0
                }
            ]
        },
        {
            "name" : "Circle.003",
            "primitives" : [
                {
                    "attributes" : {
                        "POSITION" : 10,
                        "NORMAL" : 11,
                        "TEXCOORD_0" : 12
                    },
                    "indices" : 3,
                    "material" : 0
                }
            ]
        }
    ],
    "accessors" : [
        {
            "bufferView" : 0,
            "componentType" : 5126,
            "count" : 188,
            "max" : [
                0.3081046938896179,
                0.10000000149011612,
                0.9807853102684021
            ],
            "min" : [
                -0.6376408338546753,
                0,
                -0.9807852506637573
            ],
            "type" : "VEC3"
        },
        {
            "bufferView" : 1,
            "componentType" : 5126,
            "count" : 188,
            "type" : "VEC3"
        },
        {
            "bufferView" : 2,
            "componentType" : 5126,
            "count" : 188,
            "type" : "VEC2"
        },
        {
            "bufferView" : 3,
            "componentType" : 5123,
            "count" : 348,
            "type" : "SCALAR"
        },
        {
            "bufferView" : 4,
            "componentType" : 5126,
            "count" : 188,
            "max" : [
                0.3081046938896179,
                0.10000000149011612,
                0.9807853102684021
            ],
            "min" : [
                -0.6376408338546753,
                0,
                -0.9807852506637573
            ],
            "type" : "VEC3"
        },
        {
            "bufferView" : 5,
            "componentType" : 5126,
            "count" : 188,
            "type" : "VEC3"
        },
        {
            "bufferView" : 6,
            "componentType" : 5126,
            "count" : 188,
            "type" : "VEC2"
        },
        {
            "bufferView" : 7,
            "componentType" : 5126,
            "count" : 188,
            "max" : [
                0.3081046938896179,
                0.10000000149011612,
                0.9807853102684021
            ],
            "min" : [
                -0.6376408338546753,
                0,
                -0.9807852506637573
            ],
            "type" : "VEC3"
        },
        {
            "bufferView" : 8,
            "componentType" : 5126,
            "count" : 188,
            "type" : "VEC3"
        },
        {
            "bufferView" : 9,
            "componentType" : 5126,
            "count" : 188,
            "type" : "VEC2"
        },
        {
            "bufferView" : 10,
            "componentType" : 5126,
            "count" : 188,
            "max" : [
                0.3081046938896179,
                0.10000000149011612,
                0.9807853102684021
            ],
            "min" : [
                -0.6376408338546753,
                0,
                -0.9807852506637573
            ],
            "type" : "VEC3"
        },
        {
            "bufferView" : 11,
            "componentType" : 5126,
            "count" : 188,
            "type" : "VEC3"
        },
        {
            "bufferView" : 12,
            "componentType" : 5126,
            "count" : 188,
            "type" : "VEC2"
        }
    ],
    "bufferViews" : [
        {
            "buffer" : 0,
            "byteLength" : 2256,
            "byteOffset" : 0
        },
        {
            "buffer" : 0,
            "byteLength" : 2256,
            "byteOffset" : 2256
        },
        {
            "buffer" : 0,
            "byteLength" : 1504,
            "byteOffset" : 4512
        },
        {
            "buffer" : 0,
            "byteLength" : 696,
            "byteOffset" : 6016
        },
        {
            "buffer" : 0,
            "byteLength" : 2256,
            "byteOffset" : 6712
        },
        {
            "buffer" : 0,
            "byteLength" : 2256,
            "byteOffset" : 8968
        },
        {
            "buffer" : 0,
            "byteLength" : 1504,
            "byteOffset" : 11224
        },
        {
            "buffer" : 0,
            "byteLength" : 2256,
            "byteOffset" : 12728
        },
        {
            "buffer" : 0,
            "byteLength" : 2256,
            "byteOffset" : 14984
        },
        {
            "buffer" : 0,
            "byteLength" : 1504,
            "byteOffset" : 17240
        },
        {
            "buffer" : 0,
            "byteLength" : 2256,
            "byteOffset" : 18744
        },
        {
            "buffer" : 0,
            "byteLength" : 2256,
            "byteOffset" : 21000
        },
        {
            "buffer" : 0,
            "byteLength" : 1504,
            "byteOffset" : 23256
        }
    ],
    "buffers" : [
        {
            "byteLength" : 24760,
            "uri" : "data:application/octet-stream;base64,"
        }
    ]
}
