{
    "asset" : {
        "generator" : "Khronos glTF Blender I/O v1.7.33",
        "version" : "2.0"
    },
    "scene" : 0,
    "scenes" : [
        {
            "name" : "Scene",
            "nodes" : [
                0
            ]
        }
    ],
    "nodes" : [
        {
            "mesh" : 0,
            "name" : "Sphere"
        }
    ],
    "materials" : [
        {
            "doubleSided" : true,
            "name" : "Material.001",
            "pbrMetallicRoughness" : {
                "baseColorFactor" : [
                    0.8000000715255737,
                    0.410015344619751,
                    0.18599095940589905,
                    1
                ],
                "metallicFactor" : 0
            }
        }
    ],
    "meshes" : [
        {
            "name" : "Sphere",
            "primitives" : [
                {
                    "attributes" : {
                        "POSITION" : 0,
                        "NORMAL" : 1,
                        "TEXCOORD_0" : 2
                    },
                    "indices" : 3,
                    "material" : 0
                }
            ]
        }
    ],
    "accessors" : [
        {
            "bufferView" : 0,
            "componentType" : 5126,
            "count" : 19745,
            "max" : [
                0.9876091480255127,
                0.7282463312149048,
                0.9876089096069336
            ],
            "min" : [
                -0.9876086115837097,
                -0.19659507274627686,
                -0.9876085519790649
            ],
            "type" : "VEC3"
        },
        {
            "bufferView" : 1,
            "componentType" : 5126,
            "count" : 19745,
            "type" : "VEC3"
        },
        {
            "bufferView" : 2,
            "componentType" : 5126,
            "count" : 19745,
            "type" : "VEC2"
        },
        {
            "bufferView" : 3,
            "componentType" : 5123,
            "count" : 110592,
            "type" : "SCALAR"
        }
    ],
    "bufferViews" : [
        {
            "buffer" : 0,
            "byteLength" : 236940,
            "byteOffset" : 0
        },
        {
            "buffer" : 0,
            "byteLength" : 236940,
            "byteOffset" : 236940
        },
        {
            "buffer" : 0,
            "byteLength" : 157960,
            "byteOffset" : 473880
        },
        {
            "buffer" : 0,
            "byteLength" : 221184,
            "byteOffset" : 631840
        }
    ],
    "buffers" : [
        {
            "byteLength" : 853024,
            "uri" : "data:application/octet-stream;base64,"
        }
    ]
}
