{
    "asset" : {
        "generator" : "Khronos glTF Blender I/O v1.7.33",
        "version" : "2.0"
    },
    "scene" : 0,
    "scenes" : [
        {
            "name" : "Scene",
            "nodes" : [
                0,
                1
            ]
        }
    ],
    "nodes" : [
        {
            "mesh" : 0,
            "name" : "Circle.001",
            "rotation" : [
                0.032797347754240036,
                -0.9695397615432739,
                -0.0657489076256752,
                0.2336541712284088
            ],
            "translation" : [
                0.11059558391571045,
                0.05893015116453171,
                -0.20947666466236115
            ]
        },
        {
            "mesh" : 1,
            "name" : "Circle.002",
            "rotation" : [
                -0.0771961361169815,
                0.09131107479333878,
                -0.043452486395835876,
                0.9918744564056396
            ],
            "translation" : [
                -0.20651906728744507,
                0.05893015116453171,
                0.013749897480010986
            ]
        }
    ],
    "materials" : [
        {
            "doubleSided" : true,
            "name" : "Material.001",
            "pbrMetallicRoughness" : {
                "baseColorFactor" : [
                    0.3119158148765564,
                    0.8000000715255737,
                    0.02366342395544052,
                    1
                ],
                "metallicFactor" : 0,
                "roughnessFactor" : 0.5
            }
        },
        {
            "doubleSided" : true,
            "name" : "Material.002",
            "pbrMetallicRoughness" : {
                "baseColorFactor" : [
                    0.12246625870466232,
                    0.5070711970329285,
                    0.06274305284023285,
                    1
                ],
                "metallicFactor" : 0,
                "roughnessFactor" : 0.5
            }
        }
    ],
    "meshes" : [
        {
            "name" : "Circle.001",
            "primitives" : [
                {
                    "attributes" : {
                        "POSITION" : 0,
                        "NORMAL" : 1,
                        "TEXCOORD_0" : 2
                    },
                    "indices" : 3,
                    "material" : 0
                },
                {
                    "attributes" : {
                        "POSITION" : 4,
                        "NORMAL" : 5,
                        "TEXCOORD_0" : 6
                    },
                    "indices" : 7,
                    "material" : 1
                }
            ]
        },
        {
            "name" : "Circle.002",
            "primitives" : [
                {
                    "attributes" : {
                        "POSITION" : 8,
                        "NORMAL" : 9,
                        "TEXCOORD_0" : 10
                    },
                    "indices" : 3,
                    "material" : 0
                },
                {
                    "attributes" : {
                        "POSITION" : 11,
                        "NORMAL" : 12,
                        "TEXCOORD_0" : 13
                    },
                    "indices" : 7,
                    "material" : 1
                }
            ]
        }
    ],
    "accessors" : [
        {
            "bufferView" : 0,
            "componentType" : 5126,
            "count" : 144,
            "max" : [
                0.4999972879886627,
                0.14456099271774292,
                1.0000001192092896
            ],
            "min" : [
                -0.493595153093338,
                -2.39135289348269e-07,
                -1
            ],
            "type" : "VEC3"
        },
        {
            "bufferView" : 1,
            "componentType" : 5126,
            "count" : 144,
            "type" : "VEC3"
        },
        {
            "bufferView" : 2,
            "componentType" : 5126,
            "count" : 144,
            "type" : "VEC2"
        },
        {
            "bufferView" : 3,
            "componentType" : 5123,
            "count" : 216,
            "type" : "SCALAR"
        },
        {
            "bufferView" : 4,
            "componentType" : 5126,
            "count" : 784,
            "max" : [
                0.4999972879886627,
                0.14456099271774292,
                1.0000001192092896
            ],
            "min" : [
                -0.493595153093338,
                -2.39135289348269e-07,
                -1
            ],
            "type" : "VEC3"
        },
        {
            "bufferView" : 5,
            "componentType" : 5126,
            "count" : 784,
            "type" : "VEC3"
        },
        {
            "bufferView" : 6,
            "componentType" : 5126,
            "count" : 784,
            "type" : "VEC2"
        },
        {
            "bufferView" : 7,
            "componentType" : 5123,
            "count" : 1176,
            "type" : "SCALAR"
        },
        {
            "bufferView" : 8,
            "componentType" : 5126,
            "count" : 144,
            "max" : [
                0.4999972879886627,
                0.14456099271774292,
                1.0000001192092896
            ],
            "min" : [
                -0.493595153093338,
                -2.39135289348269e-07,
                -1
            ],
            "type" : "VEC3"
        },
        {
            "bufferView" : 9,
            "componentType" : 5126,
            "count" : 144,
            "type" : "VEC3"
        },
        {
            "bufferView" : 10,
            "componentType" : 5126,
            "count" : 144,
            "type" : "VEC2"
        },
        {
            "bufferView" : 11,
            "componentType" : 5126,
            "count" : 784,
            "max" : [
                0.4999972879886627,
                0.14456099271774292,
                1.0000001192092896
            ],
            "min" : [
                -0.493595153093338,
                -2.39135289348269e-07,
                -1
            ],
            "type" : "VEC3"
        },
        {
            "bufferView" : 12,
            "componentType" : 5126,
            "count" : 784,
            "type" : "VEC3"
        },
        {
            "bufferView" : 13,
            "componentType" : 5126,
            "count" : 784,
            "type" : "VEC2"
        }
    ],
    "bufferViews" : [
        {
            "buffer" : 0,
            "byteLength" : 1728,
            "byteOffset" : 0
        },
        {
            "buffer" : 0,
            "byteLength" : 1728,
            "byteOffset" : 1728
        },
        {
            "buffer" : 0,
            "byteLength" : 1152,
            "byteOffset" : 3456
        },
        {
            "buffer" : 0,
            "byteLength" : 432,
            "byteOffset" : 4608
        },
        {
            "buffer" : 0,
            "byteLength" : 9408,
            "byteOffset" : 5040
        },
        {
            "buffer" : 0,
            "byteLength" : 9408,
            "byteOffset" : 14448
        },
        {
            "buffer" : 0,
            "byteLength" : 6272,
            "byteOffset" : 23856
        },
        {
            "buffer" : 0,
            "byteLength" : 2352,
            "byteOffset" : 30128
        },
        {
            "buffer" : 0,
            "byteLength" : 1728,
            "byteOffset" : 32480
        },
        {
            "buffer" : 0,
            "byteLength" : 1728,
            "byteOffset" : 34208
        },
        {
            "buffer" : 0,
            "byteLength" : 1152,
            "byteOffset" : 35936
        },
        {
            "buffer" : 0,
            "byteLength" : 9408,
            "byteOffset" : 37088
        },
        {
            "buffer" : 0,
            "byteLength" : 9408,
            "byteOffset" : 46496
        },
        {
            "buffer" : 0,
            "byteLength" : 6272,
            "byteOffset" : 55904
        }
    ],
    "buffers" : [
        {
            "byteLength" : 62176,
            "uri" : "data:application/octet-stream;base64,"
        }
    ]
}
