{
    "asset" : {
        "generator" : "Khronos glTF Blender I/O v1.7.33",
        "version" : "2.0"
    },
    "scene" : 0,
    "scenes" : [
        {
            "name" : "Scene",
            "nodes" : [
                0,
                1,
                2
            ]
        }
    ],
    "nodes" : [
        {
            "mesh" : 0,
            "name" : "Plane.002",
            "rotation" : [
                -0.04699596390128136,
                -0.04444759339094162,
                0.0020932459738105536,
                0.9979035258293152
            ],
            "scale" : [
                0.19212162494659424,
                1,
                1
            ],
            "translation" : [
                -0.47231048345565796,
                0,
                0
            ]
        },
        {
            "mesh" : 1,
            "name" : "Plane.003",
            "rotation" : [
                -0.046807434409856796,
                0.010987861081957817,
                0.0046975137665867805,
                0.9988324642181396
            ],
            "scale" : [
                0.19212162494659424,
                1,
                1
            ],
            "translation" : [
                0.006790578365325928,
                0,
                0
            ]
        },
        {
            "mesh" : 2,
            "name" : "Plane.004",
            "rotation" : [
                0.022447917610406876,
                -0.03587932139635086,
                9.569304893375374e-06,
                0.9991040825843811
            ],
            "scale" : [
                0.19212162494659424,
                1,
                1
            ],
            "translation" : [
                0.43684980273246765,
                0,
                0
            ]
        }
    ],
    "materials" : [
        {
            "doubleSided" : true,
            "name" : "Material.001",
            "pbrMetallicRoughness" : {
                "baseColorFactor" : [
                    0.8000000715255737,
                    0.12187039107084274,
                    0.1000458225607872,
                    1
                ],
                "metallicFactor" : 0,
                "roughnessFactor" : 0.5
            }
        },
        {
            "doubleSided" : true,
            "name" : "Material.002",
            "pbrMetallicRoughness" : {
                "baseColorFactor" : [
                    0.8000000715255737,
                    0.2131192833185196,
                    0.1544853299856186,
                    1
                ],
                "metallicFactor" : 0,
                "roughnessFactor" : 0.5
            }
        }
    ],
    "meshes" : [
        {
            "name" : "Plane.002",
            "primitives" : [
                {
                    "attributes" : {
                        "POSITION" : 0,
                        "NORMAL" : 1,
                        "TEXCOORD_0" : 2
                    },
                    "indices" : 3,
                    "material" : 0
                },
                {
                    "attributes" : {
                        "POSITION" : 4,
                        "NORMAL" : 5,
                        "TEXCOORD_0" : 6
                    },
                    "indices" : 7,
                    "material" : 1
                }
            ]
        },
        {
            "name" : "Plane.003",
            "primitives" : [
                {
                    "attributes" : {
                        "POSITION" : 8,
                        "NORMAL" : 9,
                        "TEXCOORD_0" : 10
                    },
                    "indices" : 11,
                    "material" : 0
                },
                {
                    "attributes" : {
                        "POSITION" : 12,
                        "NORMAL" : 13,
                        "TEXCOORD_0" : 14
                    },
                    "indices" : 15,
                    "material" : 1
                }
            ]
        },
        {
            "name" : "Plane.004",
            "primitives" : [
                {
                    "attributes" : {
                        "POSITION" : 16,
                        "NORMAL" : 17,
                        "TEXCOORD_0" : 18
                    },
                    "indices" : 11,
                    "material" : 0
                },
                {
                    "attributes" : {
                        "POSITION" : 19,
                        "NORMAL" : 20,
                        "TEXCOORD_0" : 21
                    },
                    "indices" : 15,
                    "material" : 1
                }
            ]
        }
    ],
    "accessors" : [
        {
            "bufferView" : 0,
            "componentType" : 5126,
            "count" : 1804,
            "max" : [
                0.9838067293167114,
                0.0413065180182457,
                1.0020891427993774
            ],
            "min" : [
                -0.9834396243095398,
                -0.08403424173593521,
                -0.9975658059120178
            ],
            "type" : "VEC3"
        },
        {
            "bufferView" : 1,
            "componentType" : 5126,
            "count" : 1804,
            "type" : "VEC3"
        },
        {
            "bufferView" : 2,
            "componentType" : 5126,
            "count" : 1804,
            "type" : "VEC2"
        },
        {
            "bufferView" : 3,
            "componentType" : 5123,
            "count" : 9024,
            "type" : "SCALAR"
        },
        {
            "bufferView" : 4,
            "componentType" : 5126,
            "count" : 990,
            "max" : [
                0.6009474992752075,
                0.03137487173080444,
                1.0018407106399536
            ],
            "min" : [
                -0.6003209352493286,
                -0.07528920471668243,
                -0.9975658059120178
            ],
            "type" : "VEC3"
        },
        {
            "bufferView" : 5,
            "componentType" : 5126,
            "count" : 990,
            "type" : "VEC3"
        },
        {
            "bufferView" : 6,
            "componentType" : 5126,
            "count" : 990,
            "type" : "VEC2"
        },
        {
            "bufferView" : 7,
            "componentType" : 5123,
            "count" : 4608,
            "type" : "SCALAR"
        },
        {
            "bufferView" : 8,
            "componentType" : 5126,
            "count" : 1364,
            "max" : [
                1.0013395547866821,
                0.04908256232738495,
                1.0047484636306763
            ],
            "min" : [
                -1.0003095865249634,
                -0.09141603112220764,
                -1.0000001192092896
            ],
            "type" : "VEC3"
        },
        {
            "bufferView" : 9,
            "componentType" : 5126,
            "count" : 1364,
            "type" : "VEC3"
        },
        {
            "bufferView" : 10,
            "componentType" : 5126,
            "count" : 1364,
            "type" : "VEC2"
        },
        {
            "bufferView" : 11,
            "componentType" : 5123,
            "count" : 7008,
            "type" : "SCALAR"
        },
        {
            "bufferView" : 12,
            "componentType" : 5126,
            "count" : 924,
            "max" : [
                0.6013395190238953,
                0.031374868005514145,
                1.0040477514266968
            ],
            "min" : [
                -0.6003929376602173,
                -0.07541140913963318,
                -1.0000001192092896
            ],
            "type" : "VEC3"
        },
        {
            "bufferView" : 13,
            "componentType" : 5126,
            "count" : 924,
            "type" : "VEC3"
        },
        {
            "bufferView" : 14,
            "componentType" : 5126,
            "count" : 924,
            "type" : "VEC2"
        },
        {
            "bufferView" : 15,
            "componentType" : 5123,
            "count" : 4320,
            "type" : "SCALAR"
        },
        {
            "bufferView" : 16,
            "componentType" : 5126,
            "count" : 1364,
            "max" : [
                1.0013395547866821,
                0.04908256232738495,
                1.0047484636306763
            ],
            "min" : [
                -1.0003095865249634,
                -0.09141603112220764,
                -1.0000001192092896
            ],
            "type" : "VEC3"
        },
        {
            "bufferView" : 17,
            "componentType" : 5126,
            "count" : 1364,
            "type" : "VEC3"
        },
        {
            "bufferView" : 18,
            "componentType" : 5126,
            "count" : 1364,
            "type" : "VEC2"
        },
        {
            "bufferView" : 19,
            "componentType" : 5126,
            "count" : 924,
            "max" : [
                0.6013395190238953,
                0.031374868005514145,
                1.0040477514266968
            ],
            "min" : [
                -0.6003929376602173,
                -0.07541140913963318,
                -1.0000001192092896
            ],
            "type" : "VEC3"
        },
        {
            "bufferView" : 20,
            "componentType" : 5126,
            "count" : 924,
            "type" : "VEC3"
        },
        {
            "bufferView" : 21,
            "componentType" : 5126,
            "count" : 924,
            "type" : "VEC2"
        }
    ],
    "bufferViews" : [
        {
            "buffer" : 0,
            "byteLength" : 21648,
            "byteOffset" : 0
        },
        {
            "buffer" : 0,
            "byteLength" : 21648,
            "byteOffset" : 21648
        },
        {
            "buffer" : 0,
            "byteLength" : 14432,
            "byteOffset" : 43296
        },
        {
            "buffer" : 0,
            "byteLength" : 18048,
            "byteOffset" : 57728
        },
        {
            "buffer" : 0,
            "byteLength" : 11880,
            "byteOffset" : 75776
        },
        {
            "buffer" : 0,
            "byteLength" : 11880,
            "byteOffset" : 87656
        },
        {
            "buffer" : 0,
            "byteLength" : 7920,
            "byteOffset" : 99536
        },
        {
            "buffer" : 0,
            "byteLength" : 9216,
            "byteOffset" : 107456
        },
        {
            "buffer" : 0,
            "byteLength" : 16368,
            "byteOffset" : 116672
        },
        {
            "buffer" : 0,
            "byteLength" : 16368,
            "byteOffset" : 133040
        },
        {
            "buffer" : 0,
            "byteLength" : 10912,
            "byteOffset" : 149408
        },
        {
            "buffer" : 0,
            "byteLength" : 14016,
            "byteOffset" : 160320
        },
        {
            "buffer" : 0,
            "byteLength" : 11088,
            "byteOffset" : 174336
        },
        {
            "buffer" : 0,
            "byteLength" : 11088,
            "byteOffset" : 185424
        },
        {
            "buffer" : 0,
            "byteLength" : 7392,
            "byteOffset" : 196512
        },
        {
            "buffer" : 0,
            "byteLength" : 8640,
            "byteOffset" : 203904
        },
        {
            "buffer" : 0,
            "byteLength" : 16368,
            "byteOffset" : 212544
        },
        {
            "buffer" : 0,
            "byteLength" : 16368,
            "byteOffset" : 228912
        },
        {
            "buffer" : 0,
            "byteLength" : 10912,
            "byteOffset" : 245280
        },
        {
            "buffer" : 0,
            "byteLength" : 11088,
            "byteOffset" : 256192
        },
        {
            "buffer" : 0,
            "byteLength" : 11088,
            "byteOffset" : 267280
        },
        {
            "buffer" : 0,
            "byteLength" : 7392,
            "byteOffset" : 278368
        }
    ],
    "buffers" : [
        {
            "byteLength" : 285760,
            "uri" : "data:application/octet-stream;base64,"
        }
    ]
}
