{
    "asset" : {
        "generator" : "Khronos glTF Blender I/O v1.7.33",
        "version" : "2.0"
    },
    "scene" : 0,
    "scenes" : [
        {
            "name" : "Scene",
            "nodes" : [
                0,
                1,
                2,
                3
            ]
        }
    ],
    "nodes" : [
        {
            "mesh" : 0,
            "name" : "Circle",
            "scale" : [
                0.3510732650756836,
                0.3510732650756836,
                0.3510732650756836
            ]
        },
        {
            "mesh" : 1,
            "name" : "Circle.001",
            "rotation" : [
                -0.0028255144134163857,
                -0.08032175153493881,
                -0.03504197299480438,
                0.9961488246917725
            ],
            "scale" : [
                0.3510732650756836,
                0.3510732650756836,
                0.3510732650756836
            ],
            "translation" : [
                0.4202214181423187,
                0.014671992510557175,
                -0.016659889370203018
            ]
        },
        {
            "mesh" : 2,
            "name" : "Circle.002",
            "rotation" : [
                -0.026069989427924156,
                0.6240997910499573,
                -0.023585570976138115,
                0.7805533409118652
            ],
            "scale" : [
                0.3510732650756836,
                0.3510732650756836,
                0.3510732650756836
            ],
            "translation" : [
                -0.29053083062171936,
                0.016038231551647186,
                -0.24312666058540344
            ]
        },
        {
            "mesh" : 3,
            "name" : "Circle.003",
            "rotation" : [
                0.03515557944774628,
                -0.986038327217102,
                9.417213732376695e-05,
                -0.1627657562494278
            ],
            "scale" : [
                0.3510732650756836,
                0.3510732650756836,
                0.3510732650756836
            ],
            "translation" : [
                -0.02591446042060852,
                0.03153236582875252,
                0.3040452301502228
            ]
        }
    ],
    "materials" : [
        {
            "doubleSided" : true,
            "name" : "Material.001",
            "pbrMetallicRoughness" : {
                "baseColorFactor" : [
                    0.3185385465621948,
                    0.09088302403688431,
                    0.014877253212034702,
                    1
                ],
                "metallicFactor" : 0
            }
        }
    ],
    "meshes" : [
        {
            "name" : "Circle",
            "primitives" : [
                {
                    "attributes" : {
                        "POSITION" : 0,
                        "NORMAL" : 1,
                        "TEXCOORD_0" : 2
                    },
                    "indices" : 3,
                    "material" : 0
                }
            ]
        },
        {
            "name" : "Circle.001",
            "primitives" : [
                {
                    "attributes" : {
                        "POSITION" : 4,
                        "NORMAL" : 5,
                        "TEXCOORD_0" : 6
                    },
                    "indices" : 3,
                    "material" : 0
                }
            ]
        },
        {
            "name" : "Circle.002",
            "primitives" : [
                {
                    "attributes" : {
                        "POSITION" : 7,
                        "NORMAL" : 8,
                        "TEXCOORD_0" : 9
                    },
                    "indices" : 3,
                    "material" : 0
                }
            ]
        },
        {
            "name" : "Circle.003",
            "primitives" : [
                {
                    "attributes" : {
                        "POSITION" : 10,
                        "NORMAL" : 11,
                        "TEXCOORD_0" : 12
                    },
                    "indices" : 3,
                    "material" : 0
                }
            ]
        }
    ],
    "accessors" : [
        {
            "bufferView" : 0,
            "componentType" : 5126,
            "count" : 128,
            "max" : [
                0.851144015789032,
                0.10000000149011612,
                0.7885110974311829
            ],
            "min" : [
                -0.8511438369750977,
                0,
                -0.785017192363739
            ],
            "type" : "VEC3"
        },
        {
            "bufferView" : 1,
            "componentType" : 5126,
            "count" : 128,
            "type" : "VEC3"
        },
        {
            "bufferView" : 2,
            "componentType" : 5126,
            "count" : 128,
            "type" : "VEC2"
        },
        {
            "bufferView" : 3,
            "componentType" : 5123,
            "count" : 756,
            "type" : "SCALAR"
        },
        {
            "bufferView" : 4,
            "componentType" : 5126,
            "count" : 128,
            "max" : [
                0.851144015789032,
                0.10000000149011612,
                0.7885110974311829
            ],
            "min" : [
                -0.8511438369750977,
                0,
                -0.785017192363739
            ],
            "type" : "VEC3"
        },
        {
            "bufferView" : 5,
            "componentType" : 5126,
            "count" : 128,
            "type" : "VEC3"
        },
        {
            "bufferView" : 6,
            "componentType" : 5126,
            "count" : 128,
            "type" : "VEC2"
        },
        {
            "bufferView" : 7,
            "componentType" : 5126,
            "count" : 128,
            "max" : [
                0.851144015789032,
                0.10000000149011612,
                0.7885110974311829
            ],
            "min" : [
                -0.8511438369750977,
                0,
                -0.785017192363739
            ],
            "type" : "VEC3"
        },
        {
            "bufferView" : 8,
            "componentType" : 5126,
            "count" : 128,
            "type" : "VEC3"
        },
        {
            "bufferView" : 9,
            "componentType" : 5126,
            "count" : 128,
            "type" : "VEC2"
        },
        {
            "bufferView" : 10,
            "componentType" : 5126,
            "count" : 128,
            "max" : [
                0.851144015789032,
                0.10000000149011612,
                0.7885110974311829
            ],
            "min" : [
                -0.8511438369750977,
                0,
                -0.785017192363739
            ],
            "type" : "VEC3"
        },
        {
            "bufferView" : 11,
            "componentType" : 5126,
            "count" : 128,
            "type" : "VEC3"
        },
        {
            "bufferView" : 12,
            "componentType" : 5126,
            "count" : 128,
            "type" : "VEC2"
        }
    ],
    "bufferViews" : [
        {
            "buffer" : 0,
            "byteLength" : 1536,
            "byteOffset" : 0
        },
        {
            "buffer" : 0,
            "byteLength" : 1536,
            "byteOffset" : 1536
        },
        {
            "buffer" : 0,
            "byteLength" : 1024,
            "byteOffset" : 3072
        },
        {
            "buffer" : 0,
            "byteLength" : 1512,
            "byteOffset" : 4096
        },
        {
            "buffer" : 0,
            "byteLength" : 1536,
            "byteOffset" : 5608
        },
        {
            "buffer" : 0,
            "byteLength" : 1536,
            "byteOffset" : 7144
        },
        {
            "buffer" : 0,
            "byteLength" : 1024,
            "byteOffset" : 8680
        },
        {
            "buffer" : 0,
            "byteLength" : 1536,
            "byteOffset" : 9704
        },
        {
            "buffer" : 0,
            "byteLength" : 1536,
            "byteOffset" : 11240
        },
        {
            "buffer" : 0,
            "byteLength" : 1024,
            "byteOffset" : 12776
        },
        {
            "buffer" : 0,
            "byteLength" : 1536,
            "byteOffset" : 13800
        },
        {
            "buffer" : 0,
            "byteLength" : 1536,
            "byteOffset" : 15336
        },
        {
            "buffer" : 0,
            "byteLength" : 1024,
            "byteOffset" : 16872
        }
    ],
    "buffers" : [
        {
            "byteLength" : 17896,
            "uri" : "data:application/octet-stream;base64,"
        }
    ]
}
